<?xml version="1.0" encoding="utf-8"?>
<!-- Svg Vector Icons : http://www.onlinewebfonts.com/icon -->
<!DOCTYPE svg PUBLIC "-//W3C//DTD SVG 1.1//EN" "http://www.w3.org/Graphics/SVG/1.1/DTD/svg11.dtd">
<svg version="1.1" xmlns="http://www.w3.org/2000/svg" xmlns:xlink="http://www.w3.org/1999/xlink" x="0px" y="0px" viewBox="0 0 256 256" enable-background="new 0 0 256 256" xml:space="preserve">
<metadata> Svg Vector Icons : http://www.onlinewebfonts.com/icon </metadata>
<g><g><g><path fill="#ffffff" d="M118.3,10.4c-2.2,0.2-6.5,1-9.4,1.7c-30.4,6.8-55,29.6-63.9,59.4C42,81,41.6,84.7,41.6,97.9c0,12.2,0.5,16.9,2.7,26.9c8.8,40.4,37,83,77.8,117.3c5.9,5,5.5,4.9,9.5,1.6c30.8-24.9,58.4-60.5,71.5-92.4c10.3-25.2,13.9-51.7,9.6-72.2c-6.7-32.2-31.4-58.2-63-66.4C140.5,10.4,127.2,9.4,118.3,10.4z M138.1,29.1c12.8,2.2,25,8.3,34.5,17.2c8.2,7.6,14.3,17.1,17.9,27.4c2.2,6.4,3.2,11.9,3.5,19.3c0.8,19.5-6.1,37-20.1,50.8c-9.4,9.3-21.7,15.8-35.3,18.4c-5.9,1.2-18.2,1.2-24.1,0c-27.8-5.5-48.3-25.7-54.4-53.7c-1.2-5.6-1.2-20.2,0-25.9c3-13.7,8.9-24.6,18.7-34.5c11-11,23.1-17.1,39.2-19.5C121.7,28.1,134.1,28.3,138.1,29.1z"/><path fill="#ffffff" d="M118.6,48.1c-15.5,2.6-29.7,13.8-36,28.3c-3.1,7.1-3.7,10.1-3.7,19.3c0,10,0.7,13.4,4.7,21.6l2.6,5.3l1.2-0.8c0.6-0.4,1.1-0.9,1-1.1c-0.1-0.1-1-2-2.2-4.2c-2.6-5.2-4.3-11.1-4.7-16.6c-0.1-2.4-0.1-4.3,0.1-4.3c0.2,0,1,0.4,1.8,0.9c0.8,0.5,2.3,1.1,3.3,1.5c1,0.3,2.7,1.4,3.6,2.3c1,1,2.4,1.8,3.3,1.9c1.3,0.2,1.6,0.4,1.4,1.4c0,0.7-0.5,2-1,3.1c-1.5,3.2-1.7,5.5-0.5,7.8l1,1.9l2-1.5c1.1-0.8,3.2-2.4,4.7-3.4c1.5-1,2.7-2.1,2.7-2.3s-1.4-0.9-3.1-1.7c-1.7-0.8-2.8-1.5-2.5-1.7c0.3-0.1,2.5-0.7,4.7-1.1c2.3-0.5,4-1,3.7-1.1c-0.2-0.1-0.7-1.1-1-2.1c-0.6-1.7-0.6-1.8-2.3-1.5c-1.4,0.2-2.1,0-3.3-0.9l-1.6-1.2L97,99.8c-1.4,1.4-1.9,1.6-3,1.3c-1.6-0.4-2.6-1.9-2.6-3.6c0-1.1-0.1-1.3-1-1c-1,0.3-1,0.2-0.7-1.8c0.4-2.4-0.4-3-1.5-1.2c-0.7,1.1-2.1,1.2-3.2,0.1c-1.2-1.2-0.7-4.3,1-5.7c0.7-0.6,1.8-1.1,2.4-1.1c0.6,0,1.2-0.3,1.3-0.7c0.4-0.9,2.6-0.3,3.8,1.1l1,1.2l0-1.7c0-1.4,0.3-2.1,1.7-3.3c0.9-0.9,2.1-2.4,2.6-3.3c0.6-1.1,1.4-1.9,2.1-2.1c0.6-0.1,1.5-0.8,1.8-1.4c0.4-0.6,1.4-1.2,2.3-1.4c1-0.2,1.9-0.8,2.4-1.5l0.8-1.2h-2.2c-2.2,0-2.2,0-1.1-0.7c0.7-0.4,1.8-0.7,2.5-0.7c1.7,0,4.6-1.2,4.6-1.8c0-0.3-0.5-0.8-1.2-1.3c-0.7-0.4-1-0.9-0.9-1.2c0.1-0.2,0-0.8-0.3-1.4c-0.4-0.7-0.8-0.9-1.5-0.7c-0.6,0.2-0.9,0.1-0.9-0.4c0-0.4-0.5-1-1.1-1.5c-1.1-0.7-1.2-0.7-2.1,0.9c-0.6,0.8-1,1.9-1,2.4c0,0.4-0.4,0.9-0.9,1c-0.5,0.1-1.2,0.9-1.5,1.7l-0.6,1.4l-0.5-1.2c-0.3-0.7-1.3-1.6-2.2-2.1C95,65.9,95.1,65,98.1,63c2.7-1.7,4.3-3.6,3.9-4.7c-0.1-0.3,0.2-0.9,0.7-1.2c0.8-0.5,0.9-0.4,0.9,0.4c0,0.5-0.4,1.5-0.9,2.2c-0.5,0.7-0.9,1.5-0.9,1.8c0,1.1,1.4,0.8,1.9-0.5c0.5-1.3,2.2-2.6,3.3-2.6c0.4,0,1.7,0.6,2.8,1.4c2,1.3,2.1,1.3,3,0.6c0.8-0.8,0.8-0.8-0.3-1.4c-0.7-0.3-1.3-0.9-1.5-1.3c-0.1-0.4-0.6-0.7-1.1-0.7c-0.5,0-1.5-0.3-2.2-0.7c-1.2-0.7-1.5-0.7-2.2,0c-0.4,0.4-0.9,0.6-1.1,0.3c-0.8-1.3,13.9-6.2,18.1-6.2l1.7,0l-1.9,0.4c-3.5,0.7-7.2,1.9-7.7,2.5c-0.4,0.5-0.1,0.9,1.4,1.9c2,1.3,2.3,2.4,1.2,3.8c-0.6,0.8-0.5,1.2,0.3,2.9c0.6,1.1,1.1,2,1.3,2c0.2,0,1-0.8,1.8-1.8c1.1-1.3,2.4-2.1,5.1-3.2c3.4-1.3,3.8-1.6,4.7-3.5c1.5-3,1.4-3.5-0.7-4.4l-1.8-0.7l2.2,0c5-0.1,11.7,1.7,18,5c3.9,2,5.2,3.1,2.7,2.1c-1.9-0.7-7.1,1-7.1,2.4c0,0.3-0.7,1-1.5,1.7c-1.3,1-1.5,1.4-1.2,2.7c0.3,1.4,0.4,1.5,1.4,0.8c1-0.7,1.1-0.6,1.9,0.2c0.5,0.5,1.1,0.9,1.5,0.9c0.6,0,0.7-0.2,0.8-2.9c0-0.9,0.5-1.8,1.2-2.4c1.6-1.3,2-1.1,1.7,0.9c-0.3,1.8-0.2,1.8,0.8,1.6c0.9-0.2,0.6,0.2-1.3,2.1c-1.3,1.4-2.8,2.5-3.3,2.5c-1.5,0-2.5-0.5-2.5-1.3c0-0.4-0.2-0.6-0.5-0.4c-0.2,0.1-0.3,0.6-0.1,0.9c0.1,0.5,0,0.7-0.7,0.7c-0.5,0-1.1,0.2-1.4,0.5c-0.3,0.3-0.9-0.2-1.8-1.9c-0.7-1.3-1.3-2.4-1.4-2.4c0,0-0.1,1.5-0.1,3.3c0,3.3,0.3,3.6,2.1,2.3c0.4-0.3,0.6-0.3,0.6,0c0,0.7-1.7,2-2.5,2c-1,0-1,0.2,0,1.7c0.8,1.1,0.7,1.2-0.2,1.2c-0.6,0-1.7,0.3-2.4,0.7c-1.2,0.6-1.4,1-1.4,2.4c0,1.3,0.2,1.7,0.9,1.7c0.5,0,1.1,0.2,1.4,0.5c0.6,0.6,2.5,0.1,2.5-0.5c0-0.9,2.9-3.7,4.2-4c1-0.2,1.7,0,2.8,1.1c0.8,0.8,1.4,1.7,1.2,1.9c-0.1,0.2,0,0.5,0.4,0.5c0.9,0,1.3-1.7,0.5-2.4c-1.1-0.9-0.8-1.6,0.4-0.8c0.6,0.4,1.2,1.2,1.3,1.8c0.3,1.3,1.9,1.8,1.9,0.7c0-0.9,1.2-1,1.7-0.3c0.1,0.2,1.9,0.5,3.8,0.5h3.5l-0.3,1.3c-1.2,5-5.5,11-10.4,14.8c-2.7,2-2.9,2.3-3.7,5.4c-1.1,4.3-1.3,8.5-0.4,9.3c0.4,0.3,0.7,1.4,0.7,2.5c0,1.1,0.3,2.4,0.7,3c0.6,0.8,0.6,1.3,0.2,1.9c-0.9,1.7-0.5,5.8,0.9,10c0.8,2.2,1.4,4.6,1.4,5.4c0,1.2,0.1,1.3,1.1,1c0.6-0.2,1.7-0.4,2.6-0.6c1.7-0.3,5.1-3.9,4.7-5.1c-0.2-0.4,0.2-1.1,1-1.7c1.2-0.9,1.2-0.9,0.4-1.8c-0.4-0.5-0.8-1-0.8-1.2c0-0.2,1-1,2.3-1.9l2.3-1.7l-0.2-3.8c-0.2-4.3,0.3-6.5,2.2-8.7c1.3-1.5,3.3-6,3.3-7.2c0-0.4-0.6-0.7-1.5-0.7l-1.6,0l1.5-1.3c0.8-0.7,2.4-2,3.4-2.8c2.1-1.7,2.4-3,1.2-4.5c-0.6-0.8-0.8-0.8-1.4-0.3c-1.1,0.8-3.5-1.2-3.5-3l0-1.4l1.1,1c0.6,0.6,1.7,1,2.3,1c0.8,0,1.7,0.5,2.3,1.3c1,1.3,1,1.7,0.8,8.2c-0.4,12.4-4,21.3-12.1,29.9c-5.9,6.3-13.5,10.9-21.5,13c-5.4,1.5-14.6,1.8-20.3,0.7c-3.6-0.7-11.6-3.3-11.6-3.8c0-0.8,2.2-3.5,3-3.7c0.8-0.2,1.3-0.9,1.9-2.6c0.5-1.3,0.7-2.6,0.5-2.9c-0.2-0.3,0.1-1,0.7-1.7c0.9-0.9,1-1.4,0.7-2.5l-0.4-1.4l-6.1,4.5c-3.8,2.7-6.2,4.8-6.3,5.4c-0.1,0.6-0.4,0.9-0.9,0.7c-0.4-0.1-1.3,0.1-1.9,0.6l-1.1,0.8l3,2c4.3,2.8,10.4,5.5,15,6.7c5,1.3,14.1,1.8,19.3,0.9c17.5-2.8,32.2-14.8,38.3-31.1c2.3-6.2,2.6-8.4,2.6-16.8c0-6.9-0.1-8.6-1.1-12c-4.9-18.1-19.2-31.8-37.1-35.4C132.4,47.6,123,47.4,118.6,48.1z M156,60.6c0.4,0.5,0.4,0.8-0.1,1.2c-0.5,0.4-0.9,0.2-1.7-0.7l-1.1-1.2h1.2C154.9,59.9,155.7,60.2,156,60.6z M161.3,91.6c1,2,2,3.8,2.3,3.9c0.2,0.1,0.3,0.7,0.2,1.2c-0.1,0.5,0,1.4,0.3,1.9c0.5,0.9,0.4,1-0.5,0.8c-0.8-0.1-1.4-1-2.6-4.1c-0.9-2.2-1.9-4.3-2.2-4.7c-0.8-0.9-1.4-3.1-0.9-3.5C158.3,86.6,159.4,88,161.3,91.6z"/><path fill="#ffffff" d="M130.9,60.2c-0.9,0.2-1.1,1.3-0.4,1.8c0.6,0.4,2.5-0.7,2.2-1.3C132.6,60.1,132,60,130.9,60.2z"/><path fill="#ffffff" d="M107.6,60.9c-0.4,0.7,0.6,1.9,1.7,1.9c0.6,0,0.9-0.3,0.9-0.9c0-0.5-0.2-0.9-0.4-0.9c-0.2,0-0.8-0.1-1.1-0.3C108.3,60.4,107.8,60.6,107.6,60.9z"/><path fill="#ffffff" d="M134.8,68.4c0,1.1,0.5,1.5,1.3,1c0.8-0.5,0.2-1.9-0.7-1.9C135.1,67.5,134.8,67.9,134.8,68.4z"/><path fill="#ffffff" d="M111.6,72.7c0,0.5,0.2,0.8,0.5,0.7c0.3-0.1,0.5-0.6,0.5-1c0-0.4-0.2-0.7-0.5-0.7C111.9,71.7,111.6,72.1,111.6,72.7z"/><path fill="#ffffff" d="M137.6,81.8c-1.5,0.5-4.2,3-4.2,3.8c0,0.1,1.1,0.3,2.4,0.3c2,0,2.9-0.3,5.2-1.9c1.6-1,3.1-1.9,3.3-1.9c0.2,0,0.3-0.2,0.1-0.5C144.1,81,139.7,81.1,137.6,81.8z"/><path fill="#ffffff" d="M151.7,82.1c-2.5,0.6-7.2,3-10.1,5.1l-2.4,1.8l-11.9-0.8l-11.9-0.8l-1.1,1.3c-0.6,0.7-1.1,1.4-1.1,1.6c0,0.2,3.5,1.4,7.8,2.7c4.3,1.3,7.8,2.5,7.8,2.6c0,0.3-5.9,5.6-8.8,8c-1,0.9-2.9,1.5-7.1,2.4l-5.6,1.1l4.1,1.8l4.1,1.9l0.3,3.3c0.6,5.7,0.7,5.7,3.8,0.2l2.8-4.9l5.8-3.4c3.2-1.9,5.9-3.4,6-3.4c0.1,0,0,3.8-0.1,8.5l-0.3,8.5l1.6-0.5c0.9-0.3,1.8-0.7,2-0.9c0.2-0.2,1.7-5.5,3.3-11.8l2.9-11.4l3.5-2.7c4.1-3.3,8.4-8.5,8.4-10.4C155.5,81.5,154.2,81.5,151.7,82.1z"/><path fill="#ffffff" d="M96.8,118.7c-5.7,4.2-10.4,7.9-10.5,8.1c-0.2,0.6,5.4,6.7,6.1,6.7c0.4,0,18.9-13.4,20.4-14.6c0.2-0.2,0.2-1.6,0-3.2l-0.3-2.7l-2.4-1.1c-1.4-0.6-2.5-1-2.7-1C107.3,110.9,102.5,114.4,96.8,118.7z"/></g></g></g>
</svg>